<?xml version="1.0"?>
<svg xmlns="http://www.w3.org/2000/svg" xmlns:xlink="http://www.w3.org/1999/xlink" version="1.1" id="Capa_1" x="0px" y="0px" viewBox="0 0 511.999 511.999" style="enable-background:new 0 0 511.999 511.999;" xml:space="preserve" width="512" height="512"><g><g>
	<g>
		<path d="M504.086,122.775l-226-121c-4.423-2.367-9.737-2.367-14.16,0l-226,121c-0.003,0.002-0.006,0.004-0.01,0.005    c-4.914,2.643-7.891,7.76-7.908,13.172c0,0.016-0.002,0.031-0.002,0.047v197.58c-17.459,6.192-30,22.865-30,42.42v121    c0,8.284,6.716,15,15,15h60c8.284,0,15-6.716,15-15V376c0-19.555-12.541-36.228-30-42.42V160.947l76,40.354V286    c0,22.005,15.427,41.836,43.438,55.843C204.152,354.196,236.669,361,271.006,361c72.503,0,135-30.396,135-75v-84.698    l98.035-52.054C514.614,143.633,514.658,128.436,504.086,122.775z M60.006,482h-30V376c0-8.271,6.729-15,15-15s15,6.729,15,15V482    z M271.006,331c-60.096,0-105-23.758-105-45v-68.77l97.965,52.017c4.399,2.336,9.67,2.336,14.069,0l97.965-52.017V286h0.001    C376.006,307.242,331.102,331,271.006,331z M271.006,239.016c-19.689-10.454-146.03-77.538-165.764-88.017h165.764    c8.284,0,15-6.716,15-15s-6.716-15-15-15H104.802l166.205-88.985l194.118,103.93C465.121,135.946,284.061,232.084,271.006,239.016    z" data-original="#000000" class="active-path" style="fill:#1A3179" data-old_color="#000000"/>
	</g>
</g></g> </svg>
